<svg xmlns="http://www.w3.org/2000/svg" viewBox="0 0 512 512">
  <defs>
    <linearGradient id="bg" x1="0" y1="0" x2="1" y2="1">
      <stop offset="0" stop-color="#7c3aed"/>
      <stop offset="1" stop-color="#2563eb"/>
    </linearGradient>
  </defs>

  <rect width="512" height="512" rx="96" fill="url(#bg)"/>

  <!-- 매장 차양(어닝) -->
  <g>
    <rect x="96" y="160" width="320" height="22" rx="11" fill="#ffffff"/>
    <path d="M96 182 v54 a32 26 0 0 0 64 0 v-54 Z" fill="#7c3aed"/>
    <path d="M160 182 v54 a32 26 0 0 0 64 0 v-54 Z" fill="#ffffff"/>
    <path d="M224 182 v54 a32 26 0 0 0 64 0 v-54 Z" fill="#16a34a"/>
    <path d="M288 182 v54 a32 26 0 0 0 64 0 v-54 Z" fill="#ef4444"/>
    <path d="M352 182 v54 a32 26 0 0 0 64 0 v-54 Z" fill="#f59e0b"/>
  </g>

  <!-- 매장 입구(유리창) -->
  <rect x="120" y="246" width="272" height="120" rx="8" fill="#dbeafe" opacity="0.9"/>
  <rect x="248" y="246" width="16" height="120" fill="#7c3aed" opacity="0.5"/>

  <!-- 1+1 가격 태그 -->
  <g transform="translate(96,322) rotate(-14)">
    <path d="M0 28 L28 0 H132 a20 20 0 0 1 20 20 v16 a20 20 0 0 1 -20 20 H28 Z" fill="#16a34a" stroke="#ffffff" stroke-width="8"/>
    <circle cx="22" cy="28" r="7" fill="#ffffff"/>
    <text x="92" y="40" font-family="Arial, sans-serif" font-size="34" font-weight="900" fill="#ffffff" text-anchor="middle">1+1</text>
  </g>

  <!-- 위치 핀 -->
  <g transform="translate(330,300)">
    <path d="M50 0 C78 0 100 22 100 50 C100 82 50 130 50 130 C50 130 0 82 0 50 C0 22 22 0 50 0 Z" fill="#ffffff"/>
    <circle cx="50" cy="50" r="28" fill="#2563eb"/>
  </g>
</svg>
